<svg width="25" height="25" viewBox="0 0 25 25" fill="none" xmlns="http://www.w3.org/2000/svg">
<mask id="mask0_120_38" style="mask-type:alpha" maskUnits="userSpaceOnUse" x="0" y="0" width="25" height="25">
<rect x="0.5" y="0.125" width="24" height="24" fill="#D9D9D9"/>
</mask>
<g mask="url(#mask0_120_38)">
<path d="M5.5 19.125H6.9L15.525 10.5L14.125 9.1L5.5 17.725V19.125ZM19.8 9.05L15.55 4.85L16.95 3.45C17.3333 3.06667 17.8043 2.875 18.363 2.875C18.921 2.875 19.3917 3.06667 19.775 3.45L21.175 4.85C21.5583 5.23333 21.7583 5.696 21.775 6.238C21.7917 6.77933 21.6083 7.24167 21.225 7.625L19.8 9.05ZM18.35 10.525L7.75 21.125H3.5V16.875L14.1 6.275L18.35 10.525Z" fill="#1C1B1F"/>
</g>
</svg>
