<svg width="25" height="25" viewBox="0 0 25 25" fill="none" xmlns="http://www.w3.org/2000/svg">
<mask id="mask0_128_38" style="mask-type:alpha" maskUnits="userSpaceOnUse" x="0" y="0" width="25" height="25">
<rect x="0.258057" y="0.161255" width="24" height="24" fill="#D9D9D9"/>
</mask>
<g mask="url(#mask0_128_38)">
<path d="M6.25806 20.1613C5.70806 20.1613 5.23739 19.9656 4.84606 19.5743C4.45406 19.1823 4.25806 18.7113 4.25806 18.1613V15.1613H6.25806V18.1613H18.2581V15.1613H20.2581V18.1613C20.2581 18.7113 20.0624 19.1823 19.6711 19.5743C19.2791 19.9656 18.8081 20.1613 18.2581 20.1613H6.25806ZM11.2581 16.1613V8.01125L8.65806 10.6113L7.25806 9.16125L12.2581 4.16125L17.2581 9.16125L15.8581 10.6113L13.2581 8.01125V16.1613H11.2581Z" fill="#1C1B1F"/>
</g>
</svg>
