<svg width="25" height="25" viewBox="0 0 25 25" fill="none" xmlns="http://www.w3.org/2000/svg">
<mask id="mask0_205_38" style="mask-type:alpha" maskUnits="userSpaceOnUse" x="0" y="0" width="25" height="25">
<rect x="0.878052" y="0.707306" width="24" height="24" fill="#D9D9D9"/>
</mask>
<g mask="url(#mask0_205_38)">
<path d="M10.2781 20.2573C9.97805 19.7073 9.71555 19.1365 9.49055 18.5448C9.26555 17.9531 9.07805 17.3406 8.92805 16.7073H5.97805C6.46139 17.5406 7.06555 18.2656 7.79055 18.8823C8.51555 19.499 9.34472 19.9573 10.2781 20.2573ZM5.12805 14.7073H8.52805C8.47805 14.374 8.44055 14.0448 8.41555 13.7198C8.39055 13.3948 8.37805 13.0573 8.37805 12.7073C8.37805 12.3573 8.39055 12.0198 8.41555 11.6948C8.44055 11.3698 8.47805 11.0406 8.52805 10.7073H5.12805C5.04472 11.0406 4.98222 11.3698 4.94055 11.6948C4.89889 12.0198 4.87805 12.3573 4.87805 12.7073C4.87805 13.0573 4.89889 13.3948 4.94055 13.7198C4.98222 14.0448 5.04472 14.374 5.12805 14.7073ZM5.97805 8.70731H8.92805C9.07805 8.07397 9.26555 7.46147 9.49055 6.86981C9.71555 6.27814 9.97805 5.70731 10.2781 5.15731C9.34472 5.45731 8.51555 5.91564 7.79055 6.53231C7.06555 7.14897 6.46139 7.87397 5.97805 8.70731ZM10.9781 8.70731H14.7781C14.5781 7.97397 14.3197 7.28231 14.0031 6.63231C13.6864 5.98231 13.3114 5.35731 12.8781 4.75731C12.4447 5.35731 12.0697 5.98231 11.7531 6.63231C11.4364 7.28231 11.1781 7.97397 10.9781 8.70731ZM16.8281 8.70731H19.7781C19.2947 7.87397 18.6906 7.14897 17.9656 6.53231C17.2406 5.91564 16.4114 5.45731 15.4781 5.15731C15.7781 5.70731 16.0406 6.27814 16.2656 6.86981C16.4906 7.46147 16.6781 8.07397 16.8281 8.70731ZM12.8781 22.7073C11.5114 22.7073 10.2197 22.4448 9.00305 21.9198C7.78639 21.3948 6.72389 20.6781 5.81555 19.7698C4.90722 18.8615 4.19055 17.799 3.66555 16.5823C3.14055 15.3656 2.87805 14.074 2.87805 12.7073C2.87805 11.324 3.14055 10.0281 3.66555 8.81981C4.19055 7.61147 4.90722 6.55314 5.81555 5.64481C6.72389 4.73647 7.78639 4.01981 9.00305 3.49481C10.2197 2.96981 11.5114 2.70731 12.8781 2.70731C14.2614 2.70731 15.5572 2.96981 16.7656 3.49481C17.9739 4.01981 19.0322 4.73647 19.9406 5.64481C20.8489 6.55314 21.5656 7.61147 22.0906 8.81981C22.6156 10.0281 22.8781 11.324 22.8781 12.7073C22.8781 12.874 22.8739 13.0406 22.8656 13.2073C22.8572 13.374 22.8447 13.5406 22.8281 13.7073H20.8031C20.8364 13.5406 20.8572 13.3781 20.8656 13.2198C20.8739 13.0615 20.8781 12.8906 20.8781 12.7073C20.8781 12.3573 20.8572 12.0198 20.8156 11.6948C20.7739 11.3698 20.7114 11.0406 20.6281 10.7073H17.2281C17.2781 11.0406 17.3156 11.3698 17.3406 11.6948C17.3656 12.0198 17.3781 12.3573 17.3781 12.7073V13.2198C17.3781 13.3781 17.3697 13.5406 17.3531 13.7073H15.3531C15.3697 13.5406 15.3781 13.3781 15.3781 13.2198V12.7073C15.3781 12.3573 15.3656 12.0198 15.3406 11.6948C15.3156 11.3698 15.2781 11.0406 15.2281 10.7073H10.5281C10.4781 11.0406 10.4406 11.3698 10.4156 11.6948C10.3906 12.0198 10.3781 12.3573 10.3781 12.7073C10.3781 13.0573 10.3906 13.3948 10.4156 13.7198C10.4406 14.0448 10.4781 14.374 10.5281 14.7073H13.8781V16.7073H10.9781C11.1781 17.4406 11.4364 18.1323 11.7531 18.7823C12.0697 19.4323 12.4447 20.0573 12.8781 20.6573C13.0614 20.3906 13.2364 20.1198 13.4031 19.8448C13.5697 19.5698 13.7281 19.2906 13.8781 19.0073V22.6573C13.7114 22.674 13.5489 22.6865 13.3906 22.6948C13.2322 22.7031 13.0614 22.7073 12.8781 22.7073ZM20.8281 22.0823L17.8781 19.1323V21.3573H15.8781V15.7073H21.5281V17.7073H19.2781L22.2281 20.6573L20.8281 22.0823Z" fill="#1C1B1F"/>
</g>
</svg>
