<svg width="25" height="25" viewBox="0 0 25 25" fill="none" xmlns="http://www.w3.org/2000/svg">
<mask id="mask0_126_50" style="mask-type:alpha" maskUnits="userSpaceOnUse" x="0" y="0" width="25" height="25">
<rect x="0.5" y="0.375" width="24" height="24" fill="#D9D9D9"/>
</mask>
<g mask="url(#mask0_126_50)">
<path d="M12.5 21.375C10 21.375 7.875 20.5 6.125 18.75C4.375 17 3.5 14.875 3.5 12.375C3.5 9.875 4.375 7.75 6.125 6C7.875 4.25 10 3.375 12.5 3.375C12.7333 3.375 12.9627 3.38333 13.188 3.4C13.4127 3.41667 13.6333 3.44167 13.85 3.475C13.1667 3.95833 12.621 4.58733 12.213 5.362C11.8043 6.13733 11.6 6.975 11.6 7.875C11.6 9.375 12.125 10.65 13.175 11.7C14.225 12.75 15.5 13.275 17 13.275C17.9167 13.275 18.7583 13.0707 19.525 12.662C20.2917 12.254 20.9167 11.7083 21.4 11.025C21.4333 11.2417 21.4583 11.4623 21.475 11.687C21.4917 11.9123 21.5 12.1417 21.5 12.375C21.5 14.875 20.625 17 18.875 18.75C17.125 20.5 15 21.375 12.5 21.375ZM12.5 19.375C13.9667 19.375 15.2833 18.971 16.45 18.163C17.6167 17.3543 18.4667 16.3 19 15C18.6667 15.0833 18.3333 15.15 18 15.2C17.6667 15.25 17.3333 15.275 17 15.275C14.95 15.275 13.204 14.5543 11.762 13.113C10.3207 11.671 9.6 9.925 9.6 7.875C9.6 7.54167 9.625 7.20833 9.675 6.875C9.725 6.54167 9.79167 6.20833 9.875 5.875C8.575 6.40833 7.521 7.25833 6.713 8.425C5.90433 9.59167 5.5 10.9083 5.5 12.375C5.5 14.3083 6.18333 15.9583 7.55 17.325C8.91667 18.6917 10.5667 19.375 12.5 19.375Z" fill="#1C1B1F"/>
</g>
</svg>
