<svg width="24" height="24" viewBox="0 0 24 24" fill="none" xmlns="http://www.w3.org/2000/svg">
<path d="M8.79157 23.6666L8.3249 19.9333C8.07212 19.8361 7.83412 19.7194 7.6109 19.5833C7.3869 19.4472 7.16796 19.3014 6.95407 19.1458L3.48324 20.6041L0.274902 15.0625L3.27907 12.7875C3.25962 12.6514 3.2499 12.5199 3.2499 12.3931V11.6056C3.2499 11.4796 3.25962 11.3486 3.27907 11.2125L0.274902 8.93748L3.48324 3.39581L6.95407 4.85415C7.16796 4.69859 7.39157 4.55276 7.6249 4.41665C7.85824 4.28053 8.09157 4.16387 8.3249 4.06665L8.79157 0.333313H15.2082L15.6749 4.06665C15.9277 4.16387 16.1661 4.28053 16.3901 4.41665C16.6133 4.55276 16.8318 4.69859 17.0457 4.85415L20.5166 3.39581L23.7249 8.93748L20.7207 11.2125C20.7402 11.3486 20.7499 11.4796 20.7499 11.6056V12.3931C20.7499 12.5199 20.7305 12.6514 20.6916 12.7875L23.6957 15.0625L20.4874 20.6041L17.0457 19.1458C16.8318 19.3014 16.6082 19.4472 16.3749 19.5833C16.1416 19.7194 15.9082 19.8361 15.6749 19.9333L15.2082 23.6666H8.79157ZM12.0582 16.0833C13.186 16.0833 14.1485 15.6847 14.9457 14.8875C15.743 14.0903 16.1416 13.1278 16.1416 12C16.1416 10.8722 15.743 9.9097 14.9457 9.11248C14.1485 8.31526 13.186 7.91665 12.0582 7.91665C10.911 7.91665 9.94346 8.31526 9.15557 9.11248C8.36846 9.9097 7.9749 10.8722 7.9749 12C7.9749 13.1278 8.36846 14.0903 9.15557 14.8875C9.94346 15.6847 10.911 16.0833 12.0582 16.0833ZM12.0582 13.75C11.5721 13.75 11.1591 13.5796 10.8192 13.239C10.4786 12.8991 10.3082 12.4861 10.3082 12C10.3082 11.5139 10.4786 11.1009 10.8192 10.761C11.1591 10.4203 11.5721 10.25 12.0582 10.25C12.5443 10.25 12.9577 10.4203 13.2984 10.761C13.6383 11.1009 13.8082 11.5139 13.8082 12C13.8082 12.4861 13.6383 12.8991 13.2984 13.239C12.9577 13.5796 12.5443 13.75 12.0582 13.75ZM10.8332 21.3333H13.1374L13.5457 18.2416C14.1485 18.0861 14.7077 17.8574 15.2234 17.5556C15.7383 17.2546 16.2096 16.8903 16.6374 16.4625L19.5249 17.6583L20.6624 15.675L18.1541 13.7791C18.2513 13.5069 18.3193 13.2199 18.3582 12.9181C18.3971 12.6171 18.4166 12.3111 18.4166 12C18.4166 11.6889 18.3971 11.3824 18.3582 11.0806C18.3193 10.7796 18.2513 10.493 18.1541 10.2208L20.6624 8.32498L19.5249 6.34165L16.6374 7.56665C16.2096 7.11942 15.7383 6.74492 15.2234 6.44315C14.7077 6.14215 14.1485 5.91387 13.5457 5.75831L13.1666 2.66665H10.8624L10.4541 5.75831C9.85129 5.91387 9.29246 6.14215 8.77757 6.44315C8.2619 6.74492 7.79018 7.1097 7.3624 7.53748L4.4749 6.34165L3.3374 8.32498L5.84574 10.1916C5.74851 10.4833 5.68046 10.775 5.64157 11.0666C5.60268 11.3583 5.58324 11.6694 5.58324 12C5.58324 12.3111 5.60268 12.6125 5.64157 12.9041C5.68046 13.1958 5.74851 13.4875 5.84574 13.7791L3.3374 15.675L4.4749 17.6583L7.3624 16.4333C7.79018 16.8805 8.2619 17.2546 8.77757 17.5556C9.29246 17.8574 9.85129 18.0861 10.4541 18.2416L10.8332 21.3333Z" fill="#404040"/>
</svg>
