<svg width="25" height="25" viewBox="0 0 25 25" fill="none" xmlns="http://www.w3.org/2000/svg">
<mask id="mask0_126_44" style="mask-type:alpha" maskUnits="userSpaceOnUse" x="0" y="0" width="25" height="25">
<rect x="0.5" y="0.375" width="24" height="24" fill="#D9D9D9"/>
</mask>
<g mask="url(#mask0_126_44)">
<path d="M12.5 23.675L9.14995 20.375H4.49995V15.725L1.19995 12.375L4.49995 9.025V4.375H9.14995L12.5 1.075L15.85 4.375H20.5V9.025L23.7999 12.375L20.5 15.725V20.375H15.85L12.5 23.675ZM12.5 18.375C14.1666 18.375 15.5833 17.7917 16.75 16.625C17.9166 15.4583 18.5 14.0417 18.5 12.375C18.5 10.7083 17.9166 9.29167 16.75 8.125C15.5833 6.95833 14.1666 6.375 12.5 6.375C10.8333 6.375 9.41662 6.95833 8.24995 8.125C7.08328 9.29167 6.49995 10.7083 6.49995 12.375C6.49995 14.0417 7.08328 15.4583 8.24995 16.625C9.41662 17.7917 10.8333 18.375 12.5 18.375ZM12.5 16.375C11.4 16.375 10.4583 15.9833 9.67495 15.2C8.89162 14.4167 8.49995 13.475 8.49995 12.375C8.49995 11.275 8.89162 10.3333 9.67495 9.55C10.4583 8.76667 11.4 8.375 12.5 8.375C13.6 8.375 14.5416 8.76667 15.325 9.55C16.1083 10.3333 16.5 11.275 16.5 12.375C16.5 13.475 16.1083 14.4167 15.325 15.2C14.5416 15.9833 13.6 16.375 12.5 16.375ZM12.5 20.875L15 18.375H18.5V14.875L21 12.375L18.5 9.875V6.375H15L12.5 3.875L9.99995 6.375H6.49995V9.875L3.99995 12.375L6.49995 14.875V18.375H9.99995L12.5 20.875Z" fill="#1C1B1F"/>
</g>
</svg>
